<svg id="Layer_1" data-name="Layer 1" xmlns="http://www.w3.org/2000/svg" viewBox="0 0 430.11 316.11"><defs><style>.cls-1{fill:#faa31a;}.cls-2{fill:#fff;}.cls-3{fill:none;stroke:#fff;stroke-miterlimit:10;stroke-width:4px;}.cls-4{fill:#14213d;}</style></defs><rect class="cls-1" x="103.47" y="98.88" width="302.48" height="180.08" rx="11.71"/><circle class="cls-2" cx="103.08" cy="104.73" r="23.78"/><circle class="cls-2" cx="103.86" cy="270.78" r="23.78"/><circle class="cls-2" cx="400.1" cy="103.95" r="23.78"/><circle class="cls-2" cx="406.33" cy="270.78" r="23.78"/><rect class="cls-3" x="139.28" y="132.15" width="234.32" height="112.67"/><rect class="cls-4" x="65.85" y="69.56" width="298.32" height="177.61" rx="11.71" transform="translate(-67 101.21) rotate(-24.01)"/><circle class="cls-2" cx="23.46" cy="143.37" r="23.45"/><circle class="cls-2" cx="90.8" cy="292.65" r="23.45"/><circle class="cls-2" cx="290.73" cy="23.46" r="23.45"/><path class="cls-2" d="M136.89,199.87c-9,4.15-19.24,5-23.34-3.85-4.35-9.44,4.8-16.82,12.23-20.24,5.43-2.51,10.16-3.86,15.56-3.92l1,6.2a34.15,34.15,0,0,0-13.2,3.16c-7,3.2-9.25,7.23-7.47,11.1s6.54,4.55,13.24,1.51a33.33,33.33,0,0,0,11-8l4.08,4.75A40.35,40.35,0,0,1,136.89,199.87Z" transform="translate(-21.16)"/><path class="cls-2" d="M153.78,191.35l-10.54-22.88,7.06-3.25,10.54,22.88Z" transform="translate(-21.16)"/><path class="cls-2" d="M183.38,178.16l-1,.46-14.56-4.28,4,8.69-7.06,3.25L154.06,163l1-.47,14.5,4.23-4-8.62,7.06-3.26Z" transform="translate(-21.16)"/><path class="cls-2" d="M187.14,176,176.6,153.1l14.8-6.82,2.41,5.23-7.74,3.56,1.41,3.06,7.74-3.57,2.28,5-7.74,3.56,2,4.41,7.73-3.56,2.41,5.23Z" transform="translate(-21.16)"/><path class="cls-2" d="M235.2,153.83l-5-10.9-7.72,11-1,.44-13.3-1.28,5,10.86-7.84,3.62-10.76-23.35,1-.46,22.71,2.33,13-18.78,1-.45L243,150.22Z" transform="translate(-21.16)"/><path class="cls-2" d="M258.45,143.11l-2.35-3.23-4.45,2.05.93,3.89-7.12,3.28-4.38-25.92,7.84-3.61,16.87,20.17Zm-10.71-15.47,2.3,8.74,2.89-1.33Z" transform="translate(-21.16)"/><path class="cls-2" d="M268.41,117.75l7.9,17.14-7.06,3.25L261.35,121l-4.48,2.07-2.64-5.74,16-7.38,2.64,5.74Z" transform="translate(-21.16)"/><path class="cls-2" d="M283.2,131.71l-10.54-22.87,14.8-6.82,2.4,5.23-7.73,3.56,1.4,3.06,7.74-3.57,2.28,5-7.73,3.56,2,4.41,7.74-3.56,2.41,5.22Z" transform="translate(-21.16)"/><path class="cls-2" d="M303.67,122.57c-1,.45-1.95.86-3,1.26l-2.32-5.76a23.73,23.73,0,0,0,3.72-1.3c3.09-1.43,3.69-2.53,3.3-3.38s-1.57-1.08-4.42-1.29c-3.66-.17-6.51-1.16-8-4.42-2.14-4.65,1.26-9.06,7.54-12a36.69,36.69,0,0,1,3.73-1.47L306.5,100a23.55,23.55,0,0,0-3.86,1.37c-2.58,1.19-3.1,2-2.79,2.68.39.85,1.69.83,4.07,1,3.7.1,6.59.91,8.23,4.47C314.67,114.91,310.29,119.52,303.67,122.57Z" transform="translate(-21.16)"/><rect class="cls-3" x="98.7" y="99.26" width="234.32" height="112.67" transform="translate(-66.47 104.62) rotate(-24.74)"/><path class="cls-1" d="M378.21,147.77a23.44,23.44,0,0,0,3,46.08l8.44-46A23.24,23.24,0,0,0,378.21,147.77Z" transform="translate(-21.16)"/></svg>